# xmcd CD database file
#
# Track frame offsets:
#	150
#	16630
#	37367
#	48294
#	65464
#	82409
#
# Disc length: 1311 seconds
#
# Revision: 0
# Processed by: cddbd v1.5.2PL0 Copyright (c) Steve Scherf et al.
# Submitted via: CDex 1.51
#
DISCID=4c051d06
DTITLE=Spa Style - Rejuvinate
DYEAR=2005
DGENRE=New Age
TTITLE0=A Gentle Touch
TTITLE1=Blossom
TTITLE2=Inner Grace
TTITLE3=Secret Garden
TTITLE4=Release
TTITLE5=Peace Within
EXTD=YEAR: 2005
EXTT0=
EXTT1=
EXTT2=
EXTT3=
EXTT4=
EXTT5=
PLAYORDER=
